<svg width="156" height="156" viewBox="0 0 156 156" fill="none" xmlns="http://www.w3.org/2000/svg">
<rect x="4" y="4" width="147.092" height="147.092" rx="17" fill="#D5E4FB" stroke="#468DCB" stroke-width="8"/>
<path d="M60.1392 120.477H58.2898C58.1804 119.945 57.989 119.477 57.7156 119.075C57.4471 118.672 57.119 118.334 56.7312 118.06C56.3484 117.782 55.9233 117.573 55.456 117.434C54.9886 117.295 54.5014 117.225 53.9943 117.225C53.0696 117.225 52.2319 117.459 51.4812 117.926C50.7354 118.394 50.1413 119.082 49.6989 119.992C49.2614 120.902 49.0426 122.018 49.0426 123.34C49.0426 124.663 49.2614 125.779 49.6989 126.689C50.1413 127.598 50.7354 128.287 51.4812 128.754C52.2319 129.222 53.0696 129.455 53.9943 129.455C54.5014 129.455 54.9886 129.386 55.456 129.247C55.9233 129.107 56.3484 128.901 56.7312 128.628C57.119 128.349 57.4471 128.009 57.7156 127.606C57.989 127.198 58.1804 126.731 58.2898 126.204H60.1392C60 126.984 59.7464 127.683 59.3786 128.299C59.0107 128.916 58.5533 129.44 58.0064 129.873C57.4595 130.301 56.8455 130.626 56.1644 130.85C55.4883 131.074 54.7649 131.185 53.9943 131.185C52.6918 131.185 51.5334 130.867 50.5192 130.231C49.505 129.595 48.707 128.69 48.1254 127.516C47.5437 126.343 47.2528 124.951 47.2528 123.34C47.2528 121.73 47.5437 120.337 48.1254 119.164C48.707 117.991 49.505 117.086 50.5192 116.45C51.5334 115.813 52.6918 115.495 53.9943 115.495C54.7649 115.495 55.4883 115.607 56.1644 115.831C56.8455 116.054 57.4595 116.383 58.0064 116.815C58.5533 117.243 59.0107 117.765 59.3786 118.381C59.7464 118.993 60 119.691 60.1392 120.477ZM67.5425 131.215C66.5084 131.215 65.6011 130.969 64.8206 130.477C64.045 129.985 63.4385 129.296 63.001 128.411C62.5684 127.526 62.3522 126.492 62.3522 125.309C62.3522 124.116 62.5684 123.074 63.001 122.184C63.4385 121.295 64.045 120.603 64.8206 120.111C65.6011 119.619 66.5084 119.373 67.5425 119.373C68.5766 119.373 69.4814 119.619 70.257 120.111C71.0376 120.603 71.6441 121.295 72.0766 122.184C72.5141 123.074 72.7329 124.116 72.7329 125.309C72.7329 126.492 72.5141 127.526 72.0766 128.411C71.6441 129.296 71.0376 129.985 70.257 130.477C69.4814 130.969 68.5766 131.215 67.5425 131.215ZM67.5425 129.634C68.328 129.634 68.9743 129.433 69.4814 129.03C69.9885 128.628 70.3639 128.098 70.6075 127.442C70.8511 126.786 70.9729 126.075 70.9729 125.309C70.9729 124.543 70.8511 123.83 70.6075 123.169C70.3639 122.508 69.9885 121.973 69.4814 121.565C68.9743 121.158 68.328 120.954 67.5425 120.954C66.757 120.954 66.1107 121.158 65.6036 121.565C65.0965 121.973 64.7211 122.508 64.4775 123.169C64.2339 123.83 64.1121 124.543 64.1121 125.309C64.1121 126.075 64.2339 126.786 64.4775 127.442C64.7211 128.098 65.0965 128.628 65.6036 129.03C66.1107 129.433 66.757 129.634 67.5425 129.634ZM82.6381 126.293V119.522H84.3981V130.977H82.6381V129.038H82.5188C82.2504 129.619 81.8327 130.114 81.266 130.522C80.6992 130.924 79.9833 131.126 79.1183 131.126C78.4023 131.126 77.766 130.969 77.2092 130.656C76.6523 130.338 76.2148 129.861 75.8967 129.224C75.5785 128.583 75.4194 127.775 75.4194 126.801V119.522H77.1793V126.681C77.1793 127.516 77.413 128.183 77.8803 128.68C78.3526 129.177 78.9542 129.426 79.685 129.426C80.1225 129.426 80.5675 129.314 81.0199 129.09C81.4773 128.866 81.8601 128.523 82.1683 128.061C82.4815 127.598 82.6381 127.009 82.6381 126.293ZM89.3815 124.086V130.977H87.6215V119.522H89.3218V121.312H89.471C89.7394 120.73 90.1471 120.263 90.694 119.91C91.2409 119.552 91.9468 119.373 92.8119 119.373C93.5874 119.373 94.2661 119.532 94.8477 119.85C95.4294 120.163 95.8818 120.641 96.205 121.282C96.5281 121.918 96.6897 122.724 96.6897 123.698V130.977H94.9298V123.818C94.9298 122.918 94.6961 122.217 94.2288 121.715C93.7615 121.208 93.1201 120.954 92.3048 120.954C91.743 120.954 91.2409 121.076 90.7984 121.319C90.3609 121.563 90.0154 121.918 89.7618 122.386C89.5083 122.853 89.3815 123.42 89.3815 124.086ZM104.887 119.522V121.014H98.9512V119.522H104.887ZM100.681 116.778H102.441V127.695C102.441 128.193 102.513 128.565 102.657 128.814C102.807 129.058 102.996 129.222 103.224 129.306C103.458 129.386 103.704 129.426 103.963 129.426C104.156 129.426 104.316 129.416 104.44 129.396C104.564 129.371 104.664 129.351 104.738 129.336L105.096 130.917C104.977 130.962 104.81 131.007 104.596 131.051C104.383 131.101 104.112 131.126 103.784 131.126C103.286 131.126 102.799 131.019 102.322 130.805C101.85 130.591 101.457 130.266 101.144 129.828C100.835 129.391 100.681 128.839 100.681 128.173V116.778Z" fill="#488ECB"/>
<path d="M115.741 40.773C115.741 40.773 109.269 55.1961 107.516 62.5767C105.224 72.2317 107.849 79.5284 104.518 88.8914C98.7625 99.8717 98.3736 101.649 77.369 101.624C69.6717 101.616 47.6285 95.4119 47.6285 95.4119C44.5895 94.5871 39 95.0739 39 91.4823C39 87.8907 42.9753 85.2728 46.5106 85.262L60.4241 86.5547C63.8059 86.3302 67.3438 84.2397 67.4512 79.5636C67.395 72.6455 66.7478 67.3339 63.4273 61.7139L50.5294 40.4377C49.7594 38.7446 49.5752 35.8562 51.8059 34.5662C54.0365 33.2762 56.5691 35.1936 57.4337 36.8623L71.8384 57.5787C73.3784 59.0906 76.113 59.3826 75.8802 56.1616L69.5182 25.3276C69.1217 23.137 70.1731 20.4839 72.5726 20.4839C75.7216 20.4839 77.6555 21.755 77.5941 23.7644L84.588 54.1873C85.1354 55.6667 87.0745 55.4719 87.5963 54.1035L89.5891 24.519C89.6914 23.5751 90.8554 21.9308 93.0911 22.2716C95.3269 22.6123 96.6136 25.1464 96.3783 26.1228L95.7311 55.3557C96.1839 57.9466 98.1101 58.3252 99.6117 56.8783L109.402 38.3714C109.995 36.819 112.326 36.4972 113.674 37.1111C114.93 37.9766 115.746 39.1341 115.746 40.7649L115.741 40.773Z" fill="#488ECB"/>
</svg>
