<svg width="26" height="28" viewBox="0 0 26 28" fill="none" xmlns="http://www.w3.org/2000/svg">
<path id="facebook" d="M25.9577 14.3257C25.9285 11.7432 25.2202 9.2236 23.9163 7.06355C22.6123 4.90349 20.7672 3.19297 18.598 2.13344C16.4287 1.07391 14.0258 0.709497 11.6722 1.0831C9.31865 1.45673 7.1124 2.5528 5.31333 4.24228C3.51424 5.93175 2.19724 8.14425 1.51742 10.6192C0.83762 13.0942 0.823298 15.7285 1.47617 18.212C2.12905 20.6956 3.42191 22.9247 5.20252 24.6371C6.9831 26.3495 9.17729 27.4738 11.5266 27.8775V18.2727H8.40642V14.3257H11.5266V11.3274C11.4544 10.6302 11.524 9.92433 11.7305 9.25955C11.9371 8.59476 12.2755 7.9873 12.7218 7.48004C13.1682 6.97276 13.7116 6.57805 14.3138 6.32377C14.916 6.06947 15.5623 5.96178 16.207 6.00833C17.1427 6.02224 18.0763 6.11285 18.9996 6.27937V9.66732H17.4395C17.1705 9.63048 16.8972 9.65975 16.6401 9.75297C16.3828 9.84619 16.1481 10.001 15.9534 10.2059C15.7587 10.4108 15.609 10.6606 15.5152 10.9367C15.4213 11.213 15.3859 11.5086 15.4113 11.8017V14.3596H18.8748L18.3131 18.3065H15.4269V27.7928C18.3754 27.2865 21.0591 25.6494 22.9911 23.1786C24.9231 20.7077 25.9756 17.567 25.9577 14.3257Z" fill="#FDB73A"/>
</svg>
