<svg width="26" height="27" viewBox="0 0 26 27" fill="none" xmlns="http://www.w3.org/2000/svg">
<g id="presention-chart-svgrepo-com 2" clip-path="url(#clip0_154_1186)">
<path id="path25" d="M0.876992 0.369385C0.645095 0.369385 0.422697 0.46458 0.258721 0.634029C0.0947451 0.803477 0.00262451 1.0333 0.00262451 1.27294C0.00262451 1.51257 0.0947451 1.74239 0.258721 1.91184C0.422697 2.08129 0.645095 2.17649 0.876992 2.17649H1.15706V15.8498C1.15706 15.8513 1.15706 15.8529 1.15706 15.8545C1.1637 17.1567 1.51411 18.3008 2.28418 19.0946C3.05425 19.8883 4.16326 20.2475 5.42418 20.2475H11.6609V22.4005L7.48031 24.5605C7.27329 24.668 7.11602 24.856 7.04301 25.0832C6.97001 25.3104 6.98725 25.5583 7.09094 25.7724C7.19495 25.9863 7.37686 26.1488 7.59673 26.2243C7.8166 26.2997 8.05645 26.2819 8.26362 26.1747L12.5352 23.9677L16.8069 26.1747C17.014 26.2819 17.2539 26.2997 17.4738 26.2243C17.6936 26.1488 17.8755 25.9863 17.9796 25.7724C18.0832 25.5583 18.1005 25.3104 18.0275 25.0832C17.9545 24.856 17.7972 24.668 17.5902 24.5605L13.4096 22.4005V20.2475H19.6349C20.8958 20.2475 22.0058 19.8894 22.7749 19.0946C23.5441 18.2997 23.8906 17.1528 23.8906 15.8498V2.17649H24.1935C24.4254 2.17649 24.6478 2.08129 24.8118 1.91184C24.9757 1.74239 25.0679 1.51257 25.0679 1.27294C25.0679 1.0333 24.9757 0.803477 24.8118 0.634029C24.6478 0.46458 24.4254 0.369385 24.1935 0.369385H23.0163H2.03143H0.876992ZM2.9058 2.17649H22.1419V15.8498C22.1419 16.8357 21.906 17.4371 21.5385 17.8169C21.171 18.1967 20.589 18.4404 19.6349 18.4404H5.42418C4.47005 18.4404 3.88785 18.1978 3.51833 17.8169C3.14962 17.4368 2.91182 16.8328 2.9058 15.8498V2.17649ZM17.7536 7.5992C17.5587 7.60527 17.3713 7.6785 17.2213 7.80723L13.8104 10.7508L12.5853 8.63786C12.5845 8.63706 12.5838 8.63626 12.583 8.63546C12.3681 8.26957 12.003 7.98898 11.5857 7.91312C11.1684 7.83725 10.7216 7.97459 10.3994 8.25428L6.7289 11.4214C6.64067 11.4974 6.56779 11.5906 6.51443 11.6958C6.46106 11.8009 6.42827 11.9158 6.41791 12.034C6.40755 12.1522 6.41983 12.2714 6.45405 12.3847C6.48827 12.498 6.54376 12.6032 6.61735 12.6944C6.69089 12.7856 6.78109 12.8609 6.8828 12.916C6.98452 12.9712 7.09575 13.0051 7.21014 13.0158C7.32454 13.0265 7.43985 13.0138 7.5495 12.9785C7.65915 12.9431 7.76099 12.8858 7.84918 12.8097L11.2601 9.86613L12.4852 11.9791C12.486 11.9799 12.4867 11.9807 12.4875 11.9815C12.9222 12.7214 14.0151 12.9036 14.6552 12.3745C14.6598 12.3706 14.6643 12.3667 14.6688 12.3627L18.3417 9.19552C18.4299 9.11953 18.5028 9.02631 18.5561 8.9212C18.6095 8.81609 18.6423 8.70115 18.6527 8.58293C18.663 8.46472 18.6507 8.34556 18.6165 8.23225C18.5823 8.11894 18.5268 8.01371 18.4532 7.92258C18.3794 7.83146 18.2889 7.7563 18.1869 7.70138C18.0849 7.64646 17.9735 7.61286 17.8589 7.60252C17.8239 7.59923 17.7887 7.59812 17.7536 7.5992Z" fill="#FDB73A"/>
</g>
<defs>
<clipPath id="clip0_154_1186">
<rect width="25.0652" height="25.9009" fill="white" transform="translate(0.00262451 0.369385)"/>
</clipPath>
</defs>
</svg>
