<svg width="59" height="62" viewBox="0 0 59 62" fill="none" xmlns="http://www.w3.org/2000/svg">
<path d="M58.5922 15.477C58.5922 15.477 53.7187 26.3377 52.3992 31.8953C50.6733 39.1657 52.6496 44.6602 50.1416 51.7106C45.8075 59.9788 45.5147 61.3168 29.6981 61.2985C23.9019 61.2923 7.30318 56.6206 7.30318 56.6206C5.01476 55.9995 0.805847 56.366 0.805847 53.6615C0.805847 50.9571 3.79928 48.9857 6.46139 48.9776L16.9384 49.951C19.4849 49.782 22.149 48.2078 22.2299 44.6866C22.1875 39.4773 21.7002 35.4775 19.1999 31.2457L9.48757 15.2245C8.90776 13.9496 8.76907 11.7746 10.4488 10.8032C12.1285 9.83179 14.0355 11.2757 14.6866 12.5322L25.5335 28.1319C26.6931 29.2703 28.7523 29.4902 28.577 27.0647L23.7863 3.84648C23.4877 2.19691 24.2794 0.199097 26.0863 0.199097C28.4575 0.199097 29.9138 1.15626 29.8676 2.66938L35.134 25.5781C35.5462 26.692 37.0064 26.5454 37.3993 25.5149L38.8999 3.23757C38.9769 2.52683 39.8534 1.28863 41.537 1.54523C43.2205 1.80183 44.1894 3.71004 44.0122 4.44522L43.5249 26.4578C43.8658 28.4088 45.3163 28.6939 46.447 27.6044L53.8189 13.6686C54.2658 12.4996 56.0206 12.2573 57.0358 12.7196C57.9816 13.3712 58.5961 14.2429 58.5961 15.4709L58.5922 15.477Z" fill="#488ECB"/>
</svg>
