<svg width="246" height="300" viewBox="0 0 246 300" fill="none" xmlns="http://www.w3.org/2000/svg">
<path d="M31.0109 260.747H36.6998L42.7084 275.406H42.964L48.9726 260.747H54.6615V282.565H50.187V268.364H50.0059L44.3596 282.459H41.3128L35.6664 268.311H35.4853V282.565H31.0109V260.747ZM65.7703 282.885C64.1155 282.885 62.6844 282.533 61.477 281.83C60.2767 281.12 59.3499 280.133 58.6965 278.868C58.043 277.597 57.7163 276.123 57.7163 274.447C57.7163 272.757 58.043 271.28 58.6965 270.015C59.3499 268.744 60.2767 267.757 61.477 267.054C62.6844 266.344 64.1155 265.988 65.7703 265.988C67.4251 265.988 68.8527 266.344 70.053 267.054C71.2604 267.757 72.1908 268.744 72.8442 270.015C73.4976 271.28 73.8243 272.757 73.8243 274.447C73.8243 276.123 73.4976 277.597 72.8442 278.868C72.1908 280.133 71.2604 281.12 70.053 281.83C68.8527 282.533 67.4251 282.885 65.7703 282.885ZM65.7916 279.369C66.5445 279.369 67.173 279.156 67.6773 278.73C68.1815 278.297 68.5615 277.707 68.8172 276.961C69.08 276.216 69.2114 275.367 69.2114 274.415C69.2114 273.464 69.08 272.615 68.8172 271.869C68.5615 271.123 68.1815 270.534 67.6773 270.101C67.173 269.667 66.5445 269.451 65.7916 269.451C65.0317 269.451 64.3925 269.667 63.874 270.101C63.3626 270.534 62.9756 271.123 62.7128 271.869C62.4571 272.615 62.3293 273.464 62.3293 274.415C62.3293 275.367 62.4571 276.216 62.7128 276.961C62.9756 277.707 63.3626 278.297 63.874 278.73C64.3925 279.156 65.0317 279.369 65.7916 279.369ZM81.3136 273.105V282.565H76.7753V266.202H81.1006V269.089H81.2923C81.6546 268.137 82.2618 267.384 83.1141 266.83C83.9663 266.269 84.9997 265.988 86.2142 265.988C87.3506 265.988 88.3413 266.237 89.1865 266.734C90.0317 267.231 90.6886 267.942 91.1574 268.865C91.6261 269.781 91.8605 270.875 91.8605 272.146V282.565H87.3222V272.956C87.3293 271.954 87.0736 271.173 86.5551 270.612C86.0367 270.044 85.3229 269.76 84.4138 269.76C83.803 269.76 83.2632 269.891 82.7945 270.154C82.3328 270.417 81.9706 270.8 81.7078 271.305C81.4521 271.802 81.3207 272.402 81.3136 273.105ZM99.5496 277.856L99.5603 272.412H100.221L105.462 266.202H110.672L103.63 274.426H102.554L99.5496 277.856ZM95.4374 282.565V260.747H99.9758V282.565H95.4374ZM105.665 282.565L100.849 275.438L103.875 272.231L110.981 282.565H105.665ZM119.682 282.885C117.999 282.885 116.55 282.544 115.335 281.862C114.128 281.173 113.198 280.2 112.544 278.943C111.891 277.679 111.564 276.184 111.564 274.458C111.564 272.775 111.891 271.297 112.544 270.026C113.198 268.755 114.117 267.764 115.303 267.054C116.497 266.344 117.896 265.988 119.501 265.988C120.58 265.988 121.585 266.162 122.516 266.51C123.453 266.851 124.27 267.366 124.966 268.055C125.669 268.744 126.216 269.611 126.607 270.655C126.997 271.692 127.193 272.906 127.193 274.298V275.545H113.375V272.732H122.921C122.921 272.079 122.778 271.5 122.494 270.996C122.21 270.491 121.816 270.097 121.312 269.813C120.815 269.522 120.236 269.376 119.575 269.376C118.886 269.376 118.276 269.536 117.743 269.856C117.217 270.168 116.805 270.591 116.507 271.123C116.209 271.649 116.056 272.235 116.049 272.881V275.555C116.049 276.365 116.198 277.064 116.497 277.654C116.802 278.243 117.232 278.698 117.786 279.018C118.34 279.337 118.997 279.497 119.756 279.497C120.261 279.497 120.722 279.426 121.141 279.284C121.56 279.142 121.919 278.929 122.217 278.645C122.516 278.361 122.743 278.013 122.899 277.601L127.097 277.878C126.884 278.886 126.447 279.767 125.786 280.52C125.133 281.265 124.288 281.848 123.251 282.267C122.221 282.679 121.031 282.885 119.682 282.885ZM132.517 288.702C131.941 288.702 131.402 288.655 130.897 288.563C130.4 288.478 129.988 288.368 129.661 288.233L130.684 284.845C131.217 285.008 131.696 285.097 132.122 285.111C132.556 285.126 132.929 285.026 133.241 284.813C133.561 284.6 133.82 284.238 134.019 283.726L134.285 283.034L128.415 266.202H133.188L136.576 278.219H136.746L140.166 266.202H144.97L138.61 284.334C138.305 285.214 137.889 285.981 137.364 286.635C136.845 287.295 136.188 287.803 135.393 288.158C134.598 288.52 133.639 288.702 132.517 288.702ZM153.49 264.55V260.747H171.41V264.55H164.73V282.565H160.17V264.55H153.49ZM179.36 282.885C177.676 282.885 176.228 282.544 175.013 281.862C173.806 281.173 172.875 280.2 172.222 278.943C171.568 277.679 171.242 276.184 171.242 274.458C171.242 272.775 171.568 271.297 172.222 270.026C172.875 268.755 173.795 267.764 174.981 267.054C176.174 266.344 177.573 265.988 179.179 265.988C180.258 265.988 181.263 266.162 182.193 266.51C183.131 266.851 183.948 267.366 184.644 268.055C185.347 268.744 185.894 269.611 186.284 270.655C186.675 271.692 186.87 272.906 186.87 274.298V275.545H173.053V272.732H182.598C182.598 272.079 182.456 271.5 182.172 270.996C181.888 270.491 181.494 270.097 180.99 269.813C180.492 269.522 179.914 269.376 179.253 269.376C178.564 269.376 177.953 269.536 177.421 269.856C176.895 270.168 176.483 270.591 176.185 271.123C175.887 271.649 175.734 272.235 175.727 272.881V275.555C175.727 276.365 175.876 277.064 176.174 277.654C176.48 278.243 176.909 278.698 177.463 279.018C178.017 279.337 178.674 279.497 179.434 279.497C179.938 279.497 180.4 279.426 180.819 279.284C181.238 279.142 181.597 278.929 181.895 278.645C182.193 278.361 182.421 278.013 182.577 277.601L186.774 277.878C186.561 278.886 186.125 279.767 185.464 280.52C184.811 281.265 183.965 281.848 182.929 282.267C181.899 282.679 180.709 282.885 179.36 282.885ZM203.447 270.868L199.292 271.123C199.221 270.768 199.068 270.449 198.834 270.165C198.6 269.873 198.291 269.643 197.907 269.472C197.531 269.295 197.08 269.206 196.554 269.206C195.851 269.206 195.258 269.355 194.775 269.653C194.292 269.944 194.051 270.335 194.051 270.825C194.051 271.216 194.207 271.546 194.519 271.816C194.832 272.086 195.368 272.302 196.128 272.466L199.09 273.062C200.681 273.389 201.867 273.915 202.648 274.639C203.429 275.363 203.82 276.315 203.82 277.494C203.82 278.567 203.504 279.508 202.872 280.317C202.247 281.127 201.387 281.759 200.294 282.214C199.207 282.661 197.953 282.885 196.533 282.885C194.367 282.885 192.641 282.434 191.355 281.532C190.077 280.623 189.328 279.387 189.107 277.824L193.571 277.59C193.706 278.251 194.033 278.755 194.551 279.103C195.07 279.444 195.734 279.614 196.544 279.614C197.339 279.614 197.978 279.461 198.461 279.156C198.951 278.844 199.2 278.442 199.207 277.952C199.2 277.54 199.026 277.203 198.685 276.94C198.344 276.67 197.818 276.464 197.108 276.322L194.274 275.758C192.676 275.438 191.487 274.884 190.706 274.096C189.931 273.307 189.544 272.302 189.544 271.081C189.544 270.03 189.828 269.124 190.397 268.364C190.972 267.604 191.778 267.018 192.815 266.606C193.859 266.194 195.081 265.988 196.48 265.988C198.546 265.988 200.173 266.425 201.359 267.299C202.552 268.172 203.248 269.362 203.447 270.868ZM215.381 266.202V269.611H205.527V266.202H215.381ZM207.764 262.281H212.303V277.537C212.303 277.956 212.367 278.283 212.494 278.517C212.622 278.744 212.8 278.904 213.027 278.996C213.261 279.089 213.531 279.135 213.837 279.135C214.05 279.135 214.263 279.117 214.476 279.082C214.689 279.039 214.852 279.007 214.966 278.986L215.68 282.363C215.452 282.434 215.133 282.515 214.721 282.608C214.309 282.707 213.808 282.768 213.219 282.789C212.125 282.832 211.166 282.686 210.342 282.352C209.526 282.018 208.89 281.5 208.435 280.797C207.981 280.094 207.757 279.206 207.764 278.133V262.281Z" fill="#468DCB"/>
<rect x="4" y="4" width="237.641" height="237.641" rx="17" fill="#D5E4FB" stroke="#468DCB" stroke-width="8"/>
<path d="M188.32 178.888C184.862 176.616 169.697 163.464 169.697 163.464C169.697 163.464 168.401 153.923 166.671 140.75C164.944 127.577 160.624 121.218 160.624 121.218C184.429 98.0299 169.697 72.1579 165.809 59.8915C162.482 49.3967 165.468 40.7682 172.335 40.3356C177.958 39.9824 181.792 48.5344 180.498 51.7162C179.202 54.8957 178.382 58.0538 180.974 59.4142C183.566 60.777 186.976 58.9817 188.704 49.4439C190.434 39.9038 179.871 26.8173 165.378 33.5448C152.732 39.4131 155.485 57.1442 162.399 74.4037C169.311 91.6662 160.509 116.407 137.773 113.473C118.785 111.021 93.7112 118.015 93.7112 118.015C93.7112 118.015 90.2539 108.022 75.9961 109.838C57.9775 112.134 64.3332 121.648 64.3332 121.648L65.1959 131.188C63.9024 132.552 59.5824 133.914 60.0137 135.277C60.4451 136.64 63.0372 142.092 65.1959 143.002C67.3569 143.908 72.1379 145.092 78.1574 145.725C82.4771 146.178 89.8782 149.792 89.8782 149.792C89.8782 149.792 82.1037 169.554 80.8073 171.596C78.975 174.486 72.3759 182.761 63.5261 189.083C60.5778 191.194 56.2905 190.675 54.8866 191.355C49.2705 194.081 53.114 196.828 54.8417 196.828C56.5691 196.828 64.825 197.716 67.8458 196.807C70.8718 195.897 89.3892 176.616 89.3892 176.616L98.1337 160.198L104.783 173.64L102.19 194.761C102.19 194.761 106.726 202.259 109.965 201.576C113.207 200.896 109.318 195.444 109.318 192.721C109.318 189.995 113.207 170.234 113.207 170.234L107.408 153.465C113.896 152.996 124.491 152.262 132.809 151.833L126.787 161.634C126.063 162.815 125.657 164.186 125.616 165.591L124.814 193.422C124.814 193.422 120.494 197.057 118.767 197.511C117.037 197.964 119.632 202.506 119.632 202.506L124.814 202.963L131.295 199.33L134.752 171.165L148.507 157.058C151.237 162.592 154.339 170.366 154.339 170.366C155.334 172.372 156.926 173.977 158.876 174.937L184.429 187.517C184.429 187.517 183.135 194.785 180.54 194.785C177.951 194.785 177.519 198.42 177.951 199.781C178.382 201.146 180.974 201.146 183.567 201.146C186.159 201.146 186.159 200.69 186.59 199.33C187.021 197.964 190.479 192.061 192.206 187.517C193.936 182.975 191.775 181.158 188.32 178.888Z" fill="#488ECB"/>
</svg>
