<svg width="246" height="300" viewBox="0 0 246 300" fill="none" xmlns="http://www.w3.org/2000/svg">
<rect x="4" y="4" width="237.641" height="237.641" rx="17" fill="#D5E4FB" stroke="#468DCB" stroke-width="8"/>
<path d="M104.077 282.565V260.747H108.69V269.749H118.055V260.747H122.657V282.565H118.055V273.552H108.69V282.565H104.077ZM126.332 282.565V279.241L134.099 272.05C134.759 271.411 135.313 270.836 135.761 270.324C136.215 269.813 136.56 269.312 136.794 268.822C137.028 268.325 137.146 267.789 137.146 267.214C137.146 266.574 137 266.024 136.709 265.562C136.418 265.094 136.02 264.735 135.516 264.486C135.011 264.231 134.44 264.103 133.8 264.103C133.133 264.103 132.55 264.238 132.053 264.508C131.556 264.778 131.173 265.165 130.903 265.669C130.633 266.173 130.498 266.773 130.498 267.469H126.119C126.119 266.042 126.442 264.802 127.089 263.751C127.735 262.7 128.641 261.887 129.805 261.312C130.97 260.736 132.312 260.449 133.832 260.449C135.395 260.449 136.755 260.726 137.913 261.28C139.077 261.827 139.983 262.586 140.629 263.56C141.276 264.533 141.599 265.648 141.599 266.905C141.599 267.729 141.435 268.542 141.109 269.344C140.789 270.147 140.217 271.038 139.393 272.018C138.57 272.991 137.408 274.16 135.91 275.523L132.724 278.645V278.794H141.886V282.565H126.332Z" fill="#468DCB"/>
</svg>
