<svg width="26" height="28" viewBox="0 0 26 28" fill="none" xmlns="http://www.w3.org/2000/svg">
<path id="instagram-[#167]" fill-rule="evenodd" clip-rule="evenodd" d="M8.32247 0.4933C6.29078 0.592226 4.52983 1.12827 3.1079 2.65628C1.681 4.19232 1.19045 6.10019 1.09855 8.26989C1.04143 9.62412 0.707385 19.855 1.67604 22.538C2.32926 24.3481 3.61579 25.7399 5.30845 26.4471C6.09827 26.7786 6.99989 27.003 8.32247 27.0685C19.3812 27.6086 23.4806 27.3146 25.2093 22.538C25.516 21.6878 25.7271 20.7157 25.7855 19.2919C26.2909 7.32717 25.7036 4.73373 23.7762 2.65628C22.2475 1.01062 20.4492 -0.109616 8.32247 0.4933ZM8.42428 24.6622C7.21346 24.6034 6.55653 24.3857 6.11815 24.2025C5.01538 23.74 4.18706 22.8498 3.7611 21.6667C3.02344 19.628 3.26809 9.94519 3.33391 8.3784C3.39849 6.8437 3.6866 5.44109 4.69002 4.35825C5.93188 3.0214 7.53635 2.36622 18.461 2.89829C19.8867 2.9678 21.1894 3.27808 22.1953 4.35825C23.4372 5.69509 24.0531 7.43989 23.5514 19.1841C23.4968 20.4875 23.2943 21.1948 23.1242 21.6667C22.0003 24.7748 19.4147 25.2063 8.42428 24.6622ZM18.5815 6.64421C18.5815 7.52921 19.2484 8.24885 20.0717 8.24885C20.8951 8.24885 21.5632 7.52921 21.5632 6.64421C21.5632 5.75922 20.8951 5.04022 20.0717 5.04022C19.2484 5.04022 18.5815 5.75922 18.5815 6.64421ZM7.06569 13.7803C7.06569 17.5715 9.92074 20.6454 13.4427 20.6454C16.9646 20.6454 19.8196 17.5715 19.8196 13.7803C19.8196 9.98897 16.9646 6.91713 13.4427 6.91713C9.92074 6.91713 7.06569 9.98897 7.06569 13.7803ZM9.30353 13.7803C9.30353 11.3205 11.1564 9.32475 13.4427 9.32475C15.7289 9.32475 17.5818 11.3205 17.5818 13.7803C17.5818 16.2414 15.7289 18.2377 13.4427 18.2377C11.1564 18.2377 9.30353 16.2414 9.30353 13.7803Z" fill="#FDB73A"/>
</svg>
