<svg width="28" height="24" viewBox="0 0 28 24" fill="none" xmlns="http://www.w3.org/2000/svg">
<path id="twitter-[#154]" fill-rule="evenodd" clip-rule="evenodd" d="M9.31397 23.4271C19.2913 23.4271 24.7486 14.6568 24.7486 7.05219C24.7486 6.80254 24.7486 6.55476 24.7328 6.30791C25.7944 5.49443 26.7105 4.4844 27.439 3.3287C26.4501 3.79435 25.3991 4.09972 24.3243 4.23436C25.4559 3.51485 26.3033 2.38447 26.7092 1.05064C25.6437 1.72106 24.4789 2.19421 23.264 2.44808C21.2096 0.131066 17.7736 0.018806 15.5883 2.19837C14.1804 3.60372 13.5815 5.69908 14.0191 7.6977C9.65769 7.46488 5.59378 5.27975 2.83868 1.68502C1.39899 4.31479 2.13536 7.67775 4.51897 9.36642C3.65569 9.33977 2.81091 9.09319 2.05604 8.64718V8.72022C2.05736 11.4594 3.87779 13.818 6.40815 14.3608C5.60965 14.5922 4.77148 14.6257 3.95975 14.4588C4.66968 16.8039 6.70693 18.4101 9.02709 18.4564C7.10618 20.0581 4.73314 20.9278 2.29003 20.925C1.85905 20.9236 1.42807 20.897 0.998413 20.8423C3.47986 22.5309 6.36584 23.4271 9.31397 23.4229" fill="#FDB73A"/>
</svg>
