<svg width="26" height="28" viewBox="0 0 26 28" fill="none" xmlns="http://www.w3.org/2000/svg">
<path id="Vector" d="M21.7986 27.9189H21.4677C17.7399 27.4847 14.1583 26.124 11.0087 23.9453C8.0827 21.9504 5.59842 19.2961 3.72906 16.1676C1.68928 12.787 0.418024 8.94169 0.0173297 4.94008C-0.0284772 4.46279 0.0167544 3.9805 0.150305 3.52249C0.283841 3.06449 0.502905 2.64029 0.794204 2.27565C1.07753 1.90612 1.42724 1.60122 1.82264 1.379C2.21803 1.15678 2.65105 1.02176 3.09605 0.981934H6.83656C7.6467 0.982811 8.42983 1.29376 9.04455 1.85864C9.65928 2.42351 10.065 3.20509 10.1886 4.0622C10.3253 5.16321 10.5811 6.24345 10.9511 7.28108C11.1761 7.93315 11.2226 8.64045 11.0851 9.31982C10.9474 9.99917 10.6314 10.6223 10.1742 11.116L9.29666 12.0555C10.6783 14.3906 12.5318 16.3643 14.7204 17.831L15.598 16.9069C16.0591 16.4175 16.6413 16.0792 17.2759 15.9318C17.9105 15.7846 18.5711 15.8344 19.1802 16.0752C20.1506 16.4677 21.1592 16.7415 22.187 16.8915C23.0013 17.0226 23.7429 17.4672 24.2728 18.1421C24.8025 18.8171 25.084 19.6758 25.0643 20.557V24.2534C25.0643 25.2147 24.7086 26.1369 24.075 26.8181C23.4414 27.4993 22.5815 27.8841 21.6835 27.8881L21.7986 27.9189ZM6.83656 3.27673H3.39817C3.22935 3.28869 3.06453 3.33715 2.9137 3.41921C2.76286 3.50127 2.62914 3.61522 2.52059 3.75418C2.41497 3.88433 2.33501 4.03604 2.28556 4.20014C2.23611 4.36424 2.21819 4.53735 2.23286 4.70906C2.58172 8.33882 3.71988 11.8306 5.55616 14.9047C7.24894 17.7489 9.50285 20.1618 12.1596 21.9739C15.033 23.9604 18.2983 25.2048 21.6979 25.6087C21.8747 25.6193 22.0516 25.5906 22.2175 25.5244C22.3834 25.458 22.5347 25.3556 22.6618 25.2236C22.8908 24.9723 23.0199 24.6355 23.0214 24.2842V20.6032C23.0279 20.2792 22.9232 19.9638 22.727 19.7167C22.5307 19.4698 22.2567 19.3084 21.9568 19.2633C20.7684 19.0922 19.6009 18.7823 18.4753 18.3392C18.2536 18.2505 18.0129 18.2308 17.7811 18.2827C17.5494 18.3345 17.3362 18.4555 17.1661 18.6319L15.7275 20.172C15.559 20.3479 15.3419 20.4609 15.1087 20.4942C14.8753 20.5275 14.6384 20.4793 14.4327 20.3568C11.3629 18.4997 8.82186 15.7849 7.08113 12.5021C6.96198 12.2834 6.91428 12.0284 6.94554 11.7773C6.9768 11.5264 7.08525 11.2937 7.25377 11.116L8.69243 9.57588C8.85741 9.39726 8.97091 9.1716 9.01938 8.92582C9.06784 8.68005 9.04924 8.42453 8.96577 8.18976C8.55027 6.98535 8.26079 5.73534 8.10258 4.46264C8.06689 4.13192 7.91747 3.82727 7.68343 3.60805C7.44939 3.38881 7.1475 3.27071 6.83656 3.27673Z" fill="#FDB73A"/>
</svg>
