<svg width="26" height="27" viewBox="0 0 26 27" fill="none" xmlns="http://www.w3.org/2000/svg">
<g id="media-file-svgrepo-com 1" clip-path="url(#clip0_154_1184)">
<path id="Vector" fill-rule="evenodd" clip-rule="evenodd" d="M10.4465 1.71887C10.1695 1.71887 9.90385 1.83258 9.70799 2.03496L3.44168 8.51018C3.24582 8.71258 3.13579 8.98707 3.13579 9.2733V22.2237C3.13579 24.0119 4.53855 25.4614 6.26894 25.4614H8.35771C8.93451 25.4614 9.4021 24.9782 9.4021 24.3822C9.4021 23.7861 8.93451 23.3029 8.35771 23.3029H6.26894C5.69215 23.3029 5.22456 22.8198 5.22456 22.2237V10.3525H10.4465C11.0233 10.3525 11.4909 9.86932 11.4909 9.2733V3.87728H18.8016C19.3784 3.87728 19.846 4.36046 19.846 4.95648V8.1941C19.846 8.79012 20.3135 9.2733 20.8903 9.2733C21.4672 9.2733 21.9347 8.79012 21.9347 8.1941V4.95648C21.9347 3.1684 20.532 1.71887 18.8016 1.71887H10.4465ZM9.4021 8.1941H6.70154L9.4021 5.4035V8.1941ZM12.5353 18.9861C12.5353 16.006 14.8732 13.5901 17.7572 13.5901C20.6411 13.5901 22.9791 16.006 22.9791 18.9861C22.9791 21.9662 20.6411 24.3822 17.7572 24.3822C14.8732 24.3822 12.5353 21.9662 12.5353 18.9861ZM17.7572 11.4317C13.7196 11.4317 10.4465 14.8139 10.4465 18.9861C10.4465 23.1583 13.7196 26.5406 17.7572 26.5406C21.7948 26.5406 25.0679 23.1583 25.0679 18.9861C25.0679 14.8139 21.7948 11.4317 17.7572 11.4317ZM17.2921 15.9297C16.9716 15.709 16.5596 15.6884 16.22 15.8762C15.8804 16.064 15.6684 16.4297 15.6684 16.8277V21.1445C15.6684 21.5426 15.8804 21.9083 16.22 22.0961C16.5596 22.2839 16.9716 22.2632 17.2921 22.0425L20.4253 19.8841C20.7158 19.6839 20.8903 19.347 20.8903 18.9861C20.8903 18.6252 20.7158 18.2883 20.4253 18.0881L17.2921 15.9297Z" fill="#FDB73A"/>
</g>
<defs>
<clipPath id="clip0_154_1184">
<rect width="25.0652" height="25.9009" fill="white" transform="translate(0.00262451 0.639648)"/>
</clipPath>
</defs>
</svg>
