<svg width="26" height="26" viewBox="0 0 26 26" fill="none" xmlns="http://www.w3.org/2000/svg">
<g id="team-group-svgrepo-com 1" clip-path="url(#clip0_154_1174)">
<path id="circle22" d="M12.5353 0.606201C10.8945 0.606201 9.54285 2.00296 9.54285 3.69837C9.54285 5.39378 10.8945 6.79055 12.5353 6.79055C14.176 6.79055 15.5277 5.39378 15.5277 3.69837C15.5277 2.00296 14.176 0.606201 12.5353 0.606201ZM12.5353 2.66765C13.0979 2.66765 13.5327 3.11696 13.5327 3.69837C13.5327 4.27979 13.0979 4.7291 12.5353 4.7291C11.9726 4.7291 11.5378 4.27979 11.5378 3.69837C11.5378 3.11696 11.9726 2.66765 12.5353 2.66765Z" fill="#FDB73A"/>
<path id="path24" d="M12.5352 4.729C10.3466 4.729 8.55148 6.58394 8.55148 8.84558H10.5464C10.5464 7.69794 11.4246 6.79045 12.5352 6.79045C13.6459 6.79045 14.5241 7.69794 14.5241 8.84558H16.519C16.519 6.58394 14.7239 4.729 12.5352 4.729Z" fill="#FDB73A"/>
<path id="circle26" d="M20.515 12.9622C18.8743 12.9622 17.5226 14.3589 17.5226 16.0543C17.5226 17.7497 18.8743 19.1465 20.515 19.1465C22.1557 19.1465 23.5074 17.7497 23.5074 16.0543C23.5074 14.3589 22.1557 12.9622 20.515 12.9622ZM20.515 15.0236C21.0777 15.0236 21.5125 15.4729 21.5125 16.0543C21.5125 16.6357 21.0777 17.0851 20.515 17.0851C19.9524 17.0851 19.5175 16.6357 19.5175 16.0543C19.5175 15.4729 19.9524 15.0236 20.515 15.0236Z" fill="#FDB73A"/>
<path id="path28" d="M20.515 17.0851C18.3166 17.0783 16.5113 18.9445 16.519 21.2164L18.5139 21.2101C18.5101 20.0565 19.3946 19.1425 20.5109 19.1465H20.513H20.5151C21.6286 19.1465 22.5078 20.0595 22.5039 21.2101L24.4989 21.2164C24.5065 18.95 22.7102 17.0863 20.5171 17.0851H20.515Z" fill="#FDB73A"/>
<path id="circle30" d="M4.55549 12.9622C2.91478 12.9622 1.56308 14.3589 1.56308 16.0543C1.56308 17.7497 2.91478 19.1465 4.55549 19.1465C6.1962 19.1465 7.5479 17.7497 7.5479 16.0543C7.5479 14.3589 6.1962 12.9622 4.55549 12.9622ZM4.55549 15.0236C5.11814 15.0236 5.55296 15.4729 5.55296 16.0543C5.55296 16.6357 5.11814 17.0851 4.55549 17.0851C3.99283 17.0851 3.55802 16.6357 3.55802 16.0543C3.55802 15.4729 3.99283 15.0236 4.55549 15.0236Z" fill="#FDB73A"/>
<path id="path32" d="M4.55346 17.0851C2.36041 17.0863 0.564072 18.95 0.571741 21.2164L2.56668 21.2101C2.56278 20.0595 3.44203 19.1465 4.5555 19.1465H4.55754H4.55957C5.67589 19.1425 6.56046 20.0565 6.55655 21.2101L8.55149 21.2164C8.55919 18.9445 6.75385 17.0783 4.55549 17.0851H4.55346Z" fill="#FDB73A"/>
<path id="path34" d="M7.22968 3.05542C3.96102 4.91665 1.83296 8.37206 1.58755 12.2202L3.57841 12.3572C3.77927 9.20767 5.51721 6.38305 8.19248 4.85971L7.22968 3.05542Z" fill="#FDB73A"/>
<path id="path36" d="M17.8408 3.05542L16.878 4.85971C19.5533 6.38305 21.2912 9.20767 21.4921 12.3572L23.4829 12.2202C23.2375 8.37206 21.1095 4.91665 17.8408 3.05542Z" fill="#FDB73A"/>
<path id="path38" d="M9.14303 22.5802L8.38626 24.4878C11.0443 25.612 14.0262 25.612 16.6842 24.4878L15.9275 22.5802C13.753 23.4999 11.3174 23.4999 9.14303 22.5802Z" fill="#FDB73A"/>
</g>
<defs>
<clipPath id="clip0_154_1174">
<rect width="25.0652" height="25.9009" fill="white" transform="translate(0.00262451 0.0180664)"/>
</clipPath>
</defs>
</svg>
